PathFileType	4	(X/Y/Z)	C:\Users\Basilio\Documents\Thesis Gigler\squatting_fais\c3dfiles\044\SLS_back_pre5\markers_experimental.trc
DataRate	CameraRate	NumFrames	NumMarkers	Units	OrigDataRate	OrigDataStartFrame	OrigNumFrames
200.000000	200.000000	4	63	mm	200.000000	696	1393
Frame#	Time	FHD			LBHD			RBHD			C7			T10			LSHO			LUUPA			LMUPA			LDUPA			LLEP			LMEP			LUL			LRFIN			RSHO			RUPA1			RMUPA			RDUPA			RLEP			RMEP			RUL			RUFIN			LASI			RASI			USACR			LSACR			RSACR			LTHI1			LTHI2			LTHI3			LTHI4			LLFC			LMFC			LTIB1			LTIB2			LTIB3			LTIB4			LLMAL			LMMAL			LHEE			LMT1			LMT2			LMT5			RTHI			RTHI2			RTHI3			RTHI4			RLFC			RMFC			RTIB1			RTIB2			RTIB3			RTIB4			RLMAL			RHEE			RMT1			RMT2			RMT5			RMMAL			CLAV			LRAD			RRAD			*61			*62			
		X1	Y1	Z1	X2	Y2	Z2	X3	Y3	Z3	X4	Y4	Z4	X5	Y5	Z5	X6	Y6	Z6	X7	Y7	Z7	X8	Y8	Z8	X9	Y9	Z9	X10	Y10	Z10	X11	Y11	Z11	X12	Y12	Z12	X13	Y13	Z13	X14	Y14	Z14	X15	Y15	Z15	X16	Y16	Z16	X17	Y17	Z17	X18	Y18	Z18	X19	Y19	Z19	X20	Y20	Z20	X21	Y21	Z21	X22	Y22	Z22	X23	Y23	Z23	X24	Y24	Z24	X25	Y25	Z25	X26	Y26	Z26	X27	Y27	Z27	X28	Y28	Z28	X29	Y29	Z29	X30	Y30	Z30	X31	Y31	Z31	X32	Y32	Z32	X33	Y33	Z33	X34	Y34	Z34	X35	Y35	Z35	X36	Y36	Z36	X37	Y37	Z37	X38	Y38	Z38	X39	Y39	Z39	X40	Y40	Z40	X41	Y41	Z41	X42	Y42	Z42	X43	Y43	Z43	X44	Y44	Z44	X45	Y45	Z45	X46	Y46	Z46	X47	Y47	Z47	X48	Y48	Z48	X49	Y49	Z49	X50	Y50	Z50	X51	Y51	Z51	X52	Y52	Z52	X53	Y53	Z53	X54	Y54	Z54	X55	Y55	Z55	X56	Y56	Z56	X57	Y57	Z57	X58	Y58	Z58	X59	Y59	Z59	X60	Y60	Z60	X61	Y61	Z61	X62	Y62	Z62	X63	Y63	Z63	

697	3.48	-77.80532073974611	1589.74072265625	-1100.669799804688	-211.5842285156251	1548.27685546875	-1175.318725585938	-252.7965087890626	1538.54736328125	-1014.987487792969	-275.6622619628907	1383.060913085938	-1088.03564453125	-360.1315307617188	1109.882568359375	-1012.554748535156	-192.2469787597657	1374.483642578125	-1231.977172851563	-40.29574203491212	1339.02685546875	-1335.343994140625	-10.06983184814453	1356.064697265625	-1297.976928710938	28.41177368164063	1334.83642578125	-1339.187866210938	87.5969696044922	1335.52685546875	-1330.665161132813	80.82093048095705	1262.349731445313	-1307.235473632813	345.6554870605469	1371.712524414063	-1217.479858398438	351.9967651367188	1397.264404296875	-1115.837768554688	-179.4883270263672	1394.194458007813	-938.863952636719	-34.08802032470704	1392.958374023438	-828.7008056640627	-2.469427347183228	1398.46240234375	-867.893005371094	35.0631446838379	1393.046630859375	-821.1437988281252	97.03878021240237	1395.014404296875	-828.0186767578127	96.29211425781253	1312.743286132813	-824.3681640625002	345.8784790039063	1393.098510742188	-961.6832275390627	342.0492858886719	1367.615844726563	-1075.519775390625	-281.0735778808594	874.668640136719	-1097.033935546875	-260.8657836914063	857.710144042969	-884.3233032226565	-409.8873901367189	976.2946777343752	-970.4432373046877	-432.173309326172	949.353698730469	-995.2891845703127	-419.201629638672	948.2297363281252	-939.8003540039065	-304.7355651855469	688.8969726562501	-1179.198486328125	-231.1941680908204	646.1267700195314	-1188.53515625	-193.2926330566407	672.7482910156251	-1182.43994140625	-221.9023742675782	585.4267578125001	-1177.6943359375	-128.9887237548828	466.0572814941407	-1160.243408203125	-114.1864318847657	473.5628967285157	-1042.012817382813	-159.6475982666016	310.0948486328126	-1056.357421875	-208.9664154052735	268.4736022949219	-1117.078002929688	-178.2656860351563	258.1300048828126	-1079.716430664063	-227.3009033203126	206.1083068847657	-1036.407836914063	-327.6301574707032	116.1147842407227	-1065.879028320313	-302.8292236328126	137.2290954589844	-984.0727539062502	-397.3599853515626	103.8395690917969	-1009.275024414063	-190.32568359375	62.79542160034181	-985.4952392578127	-190.4632110595703	58.77771759033205	-1032.715209960938	-228.1298065185547	40.57684707641602	-1078.064697265625	-356.6725158691407	620.8051147460939	-761.9678955078126	-306.4938659667969	576.0669555664064	-747.2242431640626	-274.9460754394532	581.2541503906251	-755.0417480468751	-319.3800964355469	491.7719116210939	-747.0846557617189	-332.4184875488282	410.3894348144532	-753.4625244140626	-329.9181823730469	386.5255737304689	-866.8953247070315	-427.3008422851564	322.5310668945313	-780.8709106445315	-518.1177978515626	383.2626953125001	-764.1699218750001	-512.8173828125001	337.5446777343751	-770.9627685546877	-554.8853149414064	311.4472656250001	-800.5527954101565	-716.7402343750001	342.1436462402344	-820.5894165039065	-749.0532836914064	383.2176208496094	-886.2871093750002	-739.8699340820314	173.6837615966797	-868.3870849609377	-749.3224487304689	171.6172332763672	-832.1374511718752	-785.7532348632815	213.9834594726563	-795.5881347656252	-691.4054565429689	309.2175292968751	-897.2254638671877	-145.867904663086	1318.830688476563	-1087.713745117188	nan	nan	nan	nan	nan	nan	nan	nan	nan	nan	nan	nan	
698	3.485	-77.93519592285158	1589.393188476563	-1100.554321289063	-211.5631103515626	1548.175048828125	-1175.305541992188	-252.794906616211	1538.490112304688	-1014.984558105469	-275.7521057128907	1382.94580078125	-1088.057006835938	-360.1505432128907	1109.85888671875	-1012.535400390625	-192.3015899658204	1374.359008789063	-1231.947265625	-40.28678894042969	1338.87353515625	-1335.3173828125	-10.17373466491699	1355.878173828125	-1297.858642578125	28.40202903747559	1334.707641601563	-1339.053833007813	87.47988128662111	1335.035034179688	-1330.698120117188	80.69028472900392	1261.977661132813	-1307.202270507813	345.8200988769532	1370.927124023438	-1217.421630859375	351.8414001464844	1396.47998046875	-1115.767700195313	-179.5221405029297	1394.135986328125	-938.8676757812502	-34.15093612670899	1392.902709960938	-828.6121826171877	-2.634549140930176	1398.60693359375	-867.9594726562502	34.97176742553712	1392.970947265625	-821.063171386719	96.9792175292969	1394.978271484375	-827.9969482421877	96.13003540039065	1312.691162109375	-824.187927246094	345.7801818847657	1392.8310546875	-961.7823486328127	341.6307067871094	1367.139282226563	-1075.596557617188	-281.0087890625001	874.4334716796877	-1097.028076171875	-260.9289855957032	857.5732421875002	-884.162292480469	-409.9625549316407	976.2366943359377	-970.3887939453127	-432.2584533691407	949.3215942382815	-995.1959228515627	-419.2445068359376	948.0913696289065	-939.7173461914065	-304.9178466796876	688.8205566406251	-1179.111328125	-231.2676086425782	646.1447753906251	-1188.4716796875	-193.2582550048829	672.6748657226564	-1182.360717773438	-221.8807830810547	585.4600830078126	-1177.598022460938	-129.0027465820313	466.1003417968751	-1160.171997070313	-114.3431472778321	473.490692138672	-1041.974243164063	-159.639892578125	310.0071411132813	-1056.254516601563	-209.0111083984376	268.4252014160157	-1116.987182617188	-178.4230041503907	258.6859130859376	-1079.851318359375	-227.396713256836	206.0418243408204	-1036.24658203125	-327.6470642089844	116.056022644043	-1065.811279296875	-302.9036560058594	137.2830963134766	-984.1175537109377	-397.363250732422	103.8327560424805	-1009.213500976563	-190.4810333251953	63.2270851135254	-985.4212036132815	-189.6888885498047	59.57423019409181	-1032.321166992188	-228.116439819336	40.54214477539063	-1078.06982421875	-356.7646179199219	620.8393554687501	-761.7985839843751	-306.6643676757813	575.9505615234376	-747.0553588867189	-275.0314025878907	581.2765502929689	-754.9533691406251	-319.4236755371094	491.7547912597657	-746.8604736328126	-332.4336242675782	410.2612304687501	-753.1798095703126	-329.1952819824219	387.3222656250001	-866.282165527344	-427.311004638672	322.4680480957032	-780.3569946289065	-518.1834716796876	383.3261413574219	-763.9026489257814	-513.0299072265626	337.6416320800782	-770.5554809570315	-555.0287475585939	311.5695190429688	-800.0332641601565	-717.0053710937501	342.0664062500001	-820.0433349609377	-749.1557617187501	383.2230224609376	-885.7684326171877	-740.1084594726564	173.1428680419922	-867.6731567382815	-749.5717773437501	171.6924743652344	-831.5920410156252	-785.969665527344	214.1085968017579	-794.8855590820315	-691.5742187500001	309.2919006347657	-896.7134399414065	-145.9391174316407	1318.679809570313	-1087.715576171875	nan	nan	nan	nan	nan	nan	nan	nan	nan	nan	nan	nan	
699	3.49	-78.01733398437501	1589.140991210938	-1100.362670898438	-211.5633087158204	1548.10400390625	-1175.280151367188	-252.8056793212891	1538.4912109375	-1014.999206542969	-275.8161621093751	1382.825317382813	-1087.978271484375	-360.2210998535157	1109.81396484375	-1012.464538574219	-192.3361206054688	1374.17724609375	-1231.9267578125	-40.41962051391602	1338.696166992188	-1335.229736328125	-10.24959087371826	1355.584350585938	-1297.742553710938	28.95307159423829	1334.223510742188	-1339.118041992188	87.41374969482423	1334.873901367188	-1330.714721679688	80.57878875732423	1261.602294921875	-1307.297485351563	345.7015380859376	1370.419921875	-1217.362182617188	351.7678833007813	1396.424682617188	-1116.03466796875	-179.6045227050782	1394.039306640625	-938.7984619140627	-34.19447708129884	1392.856079101563	-828.5500488281252	-2.534104347229004	1398.226684570313	-867.5942382812502	34.90370178222657	1393.001342773438	-821.013366699219	96.81388854980472	1395.010375976563	-827.9447021484377	95.98300170898439	1312.602661132813	-824.034362792969	345.6974487304688	1392.518920898438	-961.9348144531252	341.2859497070313	1366.668823242188	-1075.6611328125	-281.3696594238282	874.383972167969	-1096.771728515625	-261.0723571777344	857.551452636719	-884.0547485351565	-410.0513916015626	976.108093261719	-970.3125610351565	-432.3862304687501	949.1673583984377	-995.042907714844	-419.3081359863282	947.9667968750002	-939.5679321289065	-304.9538879394532	688.7913208007814	-1179.03466796875	-231.2285156250001	646.1237792968751	-1188.432373046875	-193.3714752197266	672.6932983398439	-1182.331420898438	-221.9948730468751	585.4411010742189	-1177.51806640625	-129.0869445800782	466.0662231445314	-1160.046630859375	-114.4211730957032	473.3971252441407	-1041.876220703125	-159.6206665039063	310.0466918945313	-1056.205078125	-209.0347290039063	268.3949890136719	-1116.929931640625	-178.4107208251953	258.7401123046876	-1079.80615234375	-227.3895568847657	205.995834350586	-1036.150024414063	-327.6951904296876	116.0160903930664	-1065.843505859375	-302.9265747070313	137.2291107177735	-984.0122070312502	-397.3959960937501	103.8941955566407	-1009.3251953125	-190.5304718017578	62.97487258911134	-985.3521728515627	-189.6962890625	59.60181427001955	-1032.376708984375	-228.1779785156251	40.38208007812501	-1078.069213867188	-356.8330993652344	620.7850952148439	-761.6132202148439	-306.6916198730469	576.0112304687501	-746.9806518554689	-275.0647583007813	581.2308349609376	-754.7797851562501	-319.5168457031251	491.7676391601564	-746.6029052734376	-332.4691162109376	410.186492919922	-752.8262329101564	-330.1356811523438	386.3636779785157	-866.300720214844	-427.6072387695314	322.4714050292969	-779.791931152344	-518.2579956054689	383.3272705078126	-763.5201416015626	-513.2400512695314	337.6783142089844	-770.000183105469	-555.1046752929689	311.3687744140626	-799.6108398437502	-717.3102416992189	342.0885314941407	-819.473571777344	-749.2579345703126	383.2383728027344	-885.149597167969	-740.0838623046876	173.226547241211	-867.0872192382815	-749.6412963867189	171.6682434082032	-831.5213623046877	-786.0175781250002	214.3071899414063	-794.407653808594	-691.7751464843751	309.3732604980469	-896.2198486328127	-146.041244506836	1318.506103515625	-1087.731689453125	nan	nan	nan	nan	nan	nan	nan	nan	nan	nan	nan	nan	
700	3.495	-77.87388610839845	1588.882446289063	-1100.341796875	-211.4055175781251	1548.048950195313	-1175.259155273438	-252.8344421386719	1538.427612304688	-1015.011413574219	-275.9393920898438	1382.708374023438	-1087.8955078125	-360.3008422851563	1109.655639648438	-1012.404296875	-192.5049438476563	1373.9052734375	-1231.843017578125	-40.29868698120118	1338.69482421875	-1335.187133789063	-10.28578472137451	1355.368041992188	-1297.670532226563	28.2038803100586	1334.629272460938	-1338.802001953125	87.31060028076173	1334.569702148438	-1330.601440429688	80.39582824707033	1261.358764648438	-1307.205200195313	345.4834289550782	1369.900390625	-1217.19287109375	351.7286376953126	1395.989013671875	-1116.142944335938	-179.7086334228516	1393.8720703125	-938.7487792968752	-34.32409667968751	1392.971313476563	-828.4998779296877	-2.651597499847413	1398.080444335938	-867.4769287109377	34.72788238525391	1392.943359375	-820.9038085937502	96.713737487793	1394.979614257813	-827.8460693359377	95.88567352294923	1312.518188476563	-823.9301757812502	345.6110229492188	1392.3779296875	-961.9822387695315	341.0315856933594	1366.209838867188	-1075.707641601563	-281.5192260742188	874.2171020507815	-1096.63330078125	-261.1754455566407	857.3608398437502	-883.9414672851565	-410.1369018554689	976.0709228515627	-970.1993408203127	-432.554412841797	949.0999755859377	-994.895690917969	-419.3945922851564	947.8881835937502	-939.518493652344	-305.1266784667969	688.6199340820314	-1178.93359375	-231.2510375976563	646.0523681640626	-1188.351684570313	-193.3354492187501	672.7550659179689	-1182.268310546875	-221.9693603515626	585.3664550781251	-1177.38525390625	-129.0639038085938	465.9997558593751	-1159.969604492188	-114.47021484375	473.3990783691407	-1041.8095703125	-159.6199951171875	310.0093383789063	-1056.078735351563	-209.1202850341797	268.2980651855469	-1116.865844726563	-178.3860931396485	258.6849060058594	-1079.65771484375	-227.5421447753907	206.021469116211	-1036.042724609375	-327.6722412109376	116.0190582275391	-1065.770385742188	-302.9457092285157	137.1994934082032	-983.9548950195315	-397.4351806640626	103.9287414550782	-1009.185119628906	-190.5380401611328	63.13365173339845	-985.4074707031252	-190.3720703125	58.83666992187501	-1032.745849609375	-228.086654663086	40.59515380859376	-1078.042602539063	-356.9163513183594	620.8081665039064	-761.5079345703126	-306.8242797851563	576.0032958984376	-746.8170776367189	-275.1154785156251	581.2044677734376	-754.6153564453126	-319.5126953125001	491.712860107422	-746.3669433593751	-332.5005493164063	410.208465576172	-752.6123657226564	-330.2694702148438	386.2486877441407	-866.012390136719	-427.6949462890626	322.5929565429688	-779.5427856445315	-518.4662475585939	383.2955322265626	-763.1040039062501	-513.2691040039064	337.5968017578126	-769.5308837890627	-555.3198852539064	311.3909606933594	-799.0634765625002	-717.3129882812501	342.1871948242188	-819.0384521484377	-749.4357299804689	383.3707275390626	-884.648132324219	-740.4067993164064	173.5646514892578	-866.5290527343752	-749.7669677734376	171.6756896972657	-831.3937988281252	-786.175476074219	214.236068725586	-793.9184570312502	-691.8787841796876	309.7965393066407	-895.713562011719	-146.1006622314453	1318.393676757813	-1087.66357421875	nan	nan	nan	nan	nan	nan	nan	nan	nan	nan	nan	nan	
